<svg width="224" height="71" viewBox="0 0 224 71" fill="none" xmlns="http://www.w3.org/2000/svg">
<mask id="mask0_3136_354" style="mask-type:alpha" maskUnits="userSpaceOnUse" x="0" y="0" width="224" height="71">
<rect width="224" height="71" fill="#D9D9D9"/>
</mask>
<g mask="url(#mask0_3136_354)">
<path fill-rule="evenodd" clip-rule="evenodd" d="M129.009 36.9648C132.592 34.1962 141.013 33.3102 142.084 38.9951V39.0689C142.232 40.0656 142.047 41.2099 141.271 41.9482C140.72 42.3673 140.2 42.701 139.729 43.0034C138.747 43.6332 137.977 44.1273 137.578 44.9752C135.066 57.3416 123.617 63.2848 112.131 62.9895C100.644 63.2848 89.1947 57.3416 86.6832 44.9752C86.284 44.1273 85.5138 43.6332 84.5323 43.0034C84.061 42.701 83.541 42.3673 82.9898 41.9482C82.2142 41.2468 82.0295 40.1025 82.1773 39.1058V39.032C83.2853 33.3471 91.6693 34.2331 95.2518 37.0017C96.1382 37.6661 96.9138 38.8474 97.3571 39.7703C97.3949 39.8586 97.4242 39.9642 97.4492 40.0546C97.4974 40.2286 97.53 40.3464 97.5787 40.1763C96.803 34.3069 88.1605 32.4243 83.47 34.7868C82.0295 29.7295 83.2114 23.6017 85.2797 18.3598C86.0923 15.8866 86.8309 14.3361 86.8309 14.3361C86.8309 14.3361 84.5041 13.1918 83.9132 9.02044C82.9898 2.15434 87.5696 -2.20158 88.1605 1.19456C88.7577 4.74422 91.3072 6.3425 92.3043 6.96753C92.4789 7.077 92.6059 7.15661 92.6665 7.21163C97.8003 2.92954 105.002 0.899243 112.131 1.00999C119.259 0.899243 126.461 2.92954 131.595 7.17472C131.655 7.1197 131.782 7.04008 131.957 6.93062C132.954 6.30558 135.503 4.7073 136.101 1.15765C136.692 -2.20158 141.308 2.15434 140.348 9.02044C139.794 13.1549 137.43 14.3361 137.43 14.3361C137.43 14.3361 138.169 15.8866 138.981 18.3598C141.05 23.5648 142.232 29.6926 140.791 34.7499C136.101 32.3874 127.458 34.3069 126.682 40.1394C126.733 40.3412 126.766 40.2156 126.817 40.0215C126.841 39.9316 126.869 39.8269 126.904 39.7333C127.347 38.8474 128.123 37.6292 129.009 36.9648ZM107.218 6.8794C103.193 7.91301 100.238 11.5306 99.9055 15.6281C99.8316 16.2926 100.053 18.6182 100.607 18.6551L100.607 18.6551C101.05 16.2188 101.568 13.3764 103.119 11.2722L103.23 11.1246C103.307 11.0473 103.378 10.9571 103.45 10.8648C103.551 10.7366 103.655 10.6043 103.784 10.497C104.633 9.75873 105.556 9.09427 106.59 8.72513C106.769 8.65726 106.94 8.59147 107.104 8.52796C108.64 7.93503 109.662 7.54029 112.131 7.50695C114.533 7.47056 115.788 7.97222 117.592 8.69371L117.671 8.72513C118.742 9.09427 119.665 9.75873 120.478 10.497C120.635 10.6016 120.754 10.7618 120.877 10.925C120.927 10.9922 120.978 11.06 121.032 11.1246L121.142 11.2722C122.657 13.4133 123.211 16.2188 123.654 18.6551C124.208 18.6551 124.466 16.2926 124.356 15.6281C124.023 11.4937 121.069 7.87609 117.043 6.8794C115.381 6.3626 113.719 6.14111 112.131 6.14111C110.505 6.10419 108.843 6.3626 107.218 6.8794ZM100.016 27.6992C100.053 38.3675 106.11 43.6832 112.131 43.6832C118.188 43.6832 124.208 38.3675 124.245 27.6992C124.208 17.0309 118.151 11.7152 112.131 11.7152C106.11 11.7521 100.053 17.0678 100.016 27.6992ZM99.3145 55.2744C102.269 57.4892 107.735 58.3014 112.131 58.3383C116.526 58.3383 121.992 57.5262 124.947 55.2744C121.179 56.2711 116.526 56.9355 112.131 56.8617C107.699 56.9355 103.082 56.2341 99.3145 55.2744ZM135.768 40.6193H135.842C136.023 40.5865 136.225 40.5664 136.433 40.5458C137.163 40.4735 137.968 40.3938 138.169 39.7333C138.28 38.4413 134.439 39.1796 133.552 39.438C131.262 40.1394 128.012 41.6898 127.68 44.2369C128.825 43.0557 130.671 41.5791 132.592 41.173C133.183 44.4215 131.115 47.3377 128.677 49.2942C127.606 47.4116 123.986 43.5725 123.802 48.076C123.732 48.2144 123.735 48.3816 123.738 48.5506C123.74 48.6521 123.742 48.7543 123.728 48.8512V48.8882C123.728 49.1096 123.709 49.3496 123.691 49.5895C123.672 49.8295 123.654 50.0694 123.654 50.2909V50.3647C123.65 50.4268 123.645 50.4907 123.64 50.5561C123.603 51.0734 123.56 51.6778 123.691 52.1366C119.997 53.3917 116.009 53.9454 112.02 53.8716C108.068 53.9454 104.079 53.3917 100.349 52.1366C100.48 51.6778 100.436 51.0734 100.399 50.556C100.394 50.4907 100.39 50.4268 100.386 50.3647V50.2909C100.386 50.1048 100.366 49.9121 100.346 49.7157C100.319 49.4447 100.29 49.1664 100.312 48.8882V48.8512C100.298 48.7543 100.3 48.6521 100.301 48.5506C100.304 48.3816 100.307 48.2144 100.238 48.076C100.053 43.5725 96.4706 47.4485 95.3626 49.2942C92.925 47.3377 90.8567 44.4215 91.4476 41.173C93.3682 41.5791 95.2149 43.0557 96.3598 44.2369C96.0274 41.6898 92.7773 40.1394 90.4874 39.438C89.601 39.1796 85.7968 38.4413 85.8707 39.7333C86.2027 40.4272 87.102 40.5047 87.8632 40.5703C88.0334 40.585 88.1967 40.5991 88.3452 40.6193H88.4191C88.4673 40.6353 88.5155 40.6305 88.5606 40.6259C88.6193 40.6199 88.6728 40.6145 88.7146 40.6562C88.8579 40.6881 89.0151 40.6993 89.1741 40.7107C89.3837 40.7257 89.5966 40.7409 89.7856 40.8039H89.8226C90.0176 40.8488 90.2187 40.8816 90.4209 40.9146C90.7166 40.9629 91.0148 41.0115 91.2999 41.0992C90.3396 43.9047 91.8909 46.8209 93.8483 48.8512C98.5759 53.6501 105.409 55.1636 112.094 55.1636C118.816 55.1636 125.611 53.687 130.339 48.8512C132.296 46.8209 133.848 43.9047 132.887 41.0992C133.172 41.0115 133.471 40.9629 133.766 40.9146C133.969 40.8816 134.17 40.8488 134.365 40.8039H134.402C134.591 40.7409 134.804 40.7257 135.013 40.7107C135.172 40.6993 135.329 40.6881 135.473 40.6562C135.537 40.6134 135.601 40.6202 135.658 40.6264C135.7 40.6308 135.737 40.6348 135.768 40.6193ZM116.304 27.9948C116.304 30.9714 114.435 33.3843 112.131 33.3843C109.826 33.3843 107.957 30.9714 107.957 27.9948C107.957 25.0183 109.826 22.6053 112.131 22.6053C114.435 22.6053 116.304 25.0183 116.304 27.9948Z" fill="#303030"/>
<path fill-rule="evenodd" clip-rule="evenodd" d="M205.02 48.1471C209.197 46.4001 217.56 47.7238 217.123 53.4922L217.104 53.5635C216.989 54.5644 216.514 55.622 215.574 56.1344C214.933 56.3966 214.345 56.5843 213.811 56.7544C212.7 57.1087 211.828 57.3866 211.223 58.1023C205.597 69.3973 192.999 72.1747 181.98 68.9165C170.809 66.2289 161.288 57.5248 162.063 44.9298C161.897 44.0074 161.281 43.3308 160.495 42.4685C160.118 42.0544 159.702 41.5975 159.279 41.05C158.711 40.1718 158.829 39.0187 159.229 38.0942L159.249 38.0229C161.79 32.8185 169.659 35.8442 172.403 39.4457C173.087 40.3169 173.531 41.6587 173.72 42.6648C173.734 42.7599 173.735 42.8695 173.735 42.9633C173.737 43.1439 173.738 43.2661 173.829 43.1144C174.599 37.2442 166.738 33.1889 161.596 34.2569C161.513 28.9991 164.241 23.386 167.596 18.8581C169.021 16.6794 170.135 15.373 170.135 15.373C170.135 15.373 168.184 13.6654 168.693 9.48323C169.578 2.6121 175.129 -0.410055 174.821 3.02331C174.479 6.60657 176.528 8.81026 177.329 9.67205C177.47 9.82299 177.572 9.93276 177.616 10.0016C183.683 7.19412 191.165 7.09703 198.022 9.04892C204.936 10.7869 211.367 14.612 215.227 20.0413C215.3 20.0038 215.443 19.9598 215.64 19.8992C216.765 19.5535 219.641 18.6696 221.137 15.3954C222.577 12.3036 225.909 17.706 223.205 24.0896C221.599 27.9398 219.01 28.469 219.01 28.469C219.01 28.469 219.323 30.1578 219.467 32.7571C220.118 38.32 219.674 44.5449 216.973 49.0571C213.054 45.561 204.209 45.1783 201.951 50.6113C201.947 50.8193 202.012 50.7066 202.112 50.5324C202.158 50.4517 202.212 50.3578 202.27 50.2765C202.927 49.5354 203.992 48.5595 205.02 48.1471ZM191.758 13.447C187.602 13.4034 183.812 16.133 182.43 20.0049C182.187 20.6276 181.799 22.9313 182.324 23.1104L182.324 23.1104C183.383 20.8717 184.618 18.26 186.661 16.6291L186.806 16.5151C186.901 16.4605 186.993 16.3917 187.087 16.3213C187.217 16.2235 187.352 16.1226 187.504 16.0523C188.516 15.5591 189.579 15.1562 190.674 15.0673C190.864 15.048 191.046 15.0285 191.221 15.0098C192.858 14.8345 193.947 14.7178 196.34 15.3245C198.671 15.9113 199.753 16.7205 201.309 17.8844L201.376 17.935C202.315 18.5688 203.035 19.4496 203.629 20.3731C203.754 20.5147 203.828 20.7004 203.904 20.8897C203.935 20.9677 203.967 21.0463 204.002 21.1226L204.071 21.2939C204.979 23.7539 204.788 26.6072 204.586 29.0753C205.121 29.2187 205.982 27.0036 206.047 26.3331C206.796 22.2535 204.878 17.9944 201.248 15.9897C199.776 15.0604 198.228 14.4162 196.694 14.0052C195.134 13.5489 193.462 13.3684 191.758 13.447ZM179.413 31.6933C176.687 42.0077 181.162 48.7099 186.977 50.2681C192.828 51.8358 200.019 48.2594 202.816 37.9641C205.541 27.6498 201.066 20.9475 195.251 19.3894C189.427 17.8669 182.2 21.4337 179.413 31.6933ZM171.598 58.1473C173.879 61.0514 178.949 63.2506 183.184 64.4238C187.43 65.5613 192.92 66.1916 196.357 64.7813C192.46 64.769 187.793 64.2064 183.566 62.9975C179.266 61.9217 174.988 60.0494 171.598 58.1473ZM210.603 53.4264L210.674 53.4456C210.857 53.4606 211.057 53.4936 211.264 53.5276C211.988 53.6467 212.786 53.7779 213.151 53.192C213.592 51.9727 209.691 51.6917 208.768 51.7119C206.374 51.7967 202.834 52.4531 201.853 54.8273C203.265 53.9827 205.431 53.0343 207.391 53.1392C207.121 56.4299 204.369 58.7115 201.508 59.9704C200.96 57.8747 198.458 53.2296 197.114 57.5319C197.011 57.6477 196.971 57.8099 196.93 57.9739C196.905 58.0724 196.88 58.1715 196.842 58.2616L196.832 58.2973C196.775 58.5112 196.695 58.7382 196.615 58.9652C196.535 59.1922 196.455 59.4191 196.398 59.6331L196.379 59.7044C196.359 59.7633 196.338 59.8239 196.316 59.8857C196.146 60.3758 195.948 60.9483 195.956 61.4255C192.063 61.6819 188.067 61.1844 184.233 60.0807C180.397 59.1291 176.687 57.5619 173.409 55.3841C173.654 54.9748 173.769 54.3797 173.867 53.8704C173.879 53.8061 173.891 53.7432 173.903 53.6821L173.922 53.6108C173.971 53.431 174.002 53.2399 174.033 53.045C174.077 52.7761 174.121 52.5 174.214 52.2367L174.224 52.2011C174.235 52.1038 174.263 52.0056 174.291 51.908C174.338 51.7455 174.384 51.5848 174.353 51.4332C175.34 47.0353 170.876 49.852 169.329 51.348C167.48 48.8273 166.237 45.4751 167.649 42.4903C169.399 43.3796 170.8 45.2838 171.601 46.7212C171.939 44.1748 169.201 41.836 167.17 40.5659C166.381 40.0869 162.898 38.3891 162.635 39.6563C162.776 40.4124 163.624 40.72 164.343 40.9804C164.503 41.0386 164.657 41.0945 164.795 41.1525L164.867 41.1716C164.909 41.1996 164.957 41.2073 165.002 41.2146C165.06 41.224 165.113 41.2326 165.143 41.2837C165.273 41.3516 165.422 41.4031 165.572 41.4553C165.771 41.524 165.973 41.5938 166.139 41.7036L166.175 41.7131C166.351 41.807 166.537 41.8908 166.724 41.975C166.997 42.0981 167.273 42.2222 167.525 42.3807C165.872 44.8421 166.615 48.0605 167.98 50.5282C171.305 56.3872 177.513 59.6176 183.97 61.3478C190.463 63.0875 197.41 63.4201 203.228 59.9727C205.644 58.5182 207.897 56.1028 207.696 53.1444C207.994 53.1335 208.294 53.1637 208.592 53.1936C208.796 53.2141 208.999 53.2344 209.199 53.2415L209.235 53.251C209.434 53.2391 209.643 53.2795 209.85 53.3193C210.006 53.3495 210.161 53.3793 210.308 53.3856C210.381 53.3609 210.441 53.3842 210.495 53.4048C210.533 53.4198 210.569 53.4334 210.603 53.4264ZM195.069 36.1944C194.299 39.0696 191.869 40.9167 189.643 40.3201C187.416 39.7236 186.236 36.9092 187.006 34.0341C187.777 31.1589 190.206 29.3118 192.433 29.9084C194.659 30.5049 195.839 33.3193 195.069 36.1944Z" fill="#303030"/>
<path fill-rule="evenodd" clip-rule="evenodd" d="M51.8486 39.41C54.5925 35.8085 62.4972 32.7733 65.0031 37.9872L65.0222 38.0585C65.4229 38.983 65.5407 40.1361 64.9826 41.05C64.5587 41.5975 64.1427 42.0544 63.7658 42.4684C62.9806 43.3308 62.3647 44.0074 62.1985 44.9298C62.9732 57.5248 53.4521 66.2289 42.2807 68.9165C31.2621 72.1747 18.6645 69.3973 13.038 58.1023C12.4329 57.3866 11.5611 57.1086 10.45 56.7544C9.91649 56.5843 9.32782 56.3966 8.68698 56.1344C7.75627 55.6576 7.28172 54.6001 7.16646 53.5991L7.14735 53.5278C6.74626 47.7499 15.0738 46.4357 19.2509 48.1827C20.2791 48.5951 21.334 49.5354 22.001 50.3121C22.0604 50.3876 22.116 50.482 22.1636 50.5629C22.2552 50.7185 22.3172 50.8238 22.3201 50.647C20.0518 45.1783 11.2165 45.5966 7.29725 49.0927C4.59699 44.5805 4.15261 38.3556 4.79373 32.7571C4.93845 30.1578 5.25068 28.469 5.25068 28.469C5.25068 28.469 2.70696 27.9659 1.05653 24.0896C-1.61243 17.6964 1.68391 12.3036 3.1337 15.4311C4.62923 18.7052 7.50556 19.5892 8.63041 19.9349C8.82741 19.9954 8.97069 20.0394 9.04341 20.0769C12.894 14.612 19.3252 10.7868 26.2392 9.04889C33.0958 7.097 40.578 7.19409 46.6356 9.96589C46.6798 9.89707 46.7819 9.7873 46.9222 9.63637C47.7235 8.77457 49.7726 6.57088 49.4306 2.98762C49.132 -0.410084 54.7188 2.60251 55.5683 9.4832C56.1033 13.6201 54.1258 15.3729 54.1258 15.3729C54.1258 15.3729 55.2406 16.6793 56.6656 18.858C60.0105 23.3503 62.7381 28.9634 62.6557 34.2212C57.5135 33.1532 49.6623 37.2442 50.4227 43.0787C50.5236 43.2605 50.5232 43.1306 50.5226 42.9299C50.5223 42.8369 50.5219 42.7286 50.5316 42.6291C50.7304 41.6586 51.1643 40.2812 51.8486 39.41ZM23.0135 15.9897C19.3924 18.03 17.4747 22.2891 18.2141 26.333C18.3147 26.994 19.1307 29.183 19.6754 29.0753L19.6754 29.0752C19.4729 26.6072 19.2367 23.7278 20.1905 21.2939L20.2593 21.1226C20.314 21.028 20.359 20.9225 20.4051 20.8146C20.4692 20.6647 20.5353 20.51 20.632 20.373C21.2614 19.44 21.9813 18.5592 22.8847 17.935C23.0397 17.8232 23.1873 17.7156 23.3297 17.6116C24.6595 16.6415 25.5448 15.9956 27.9207 15.3245C30.2323 14.6674 31.5739 14.8273 33.5033 15.0573L33.5873 15.0673C34.7174 15.1466 35.7813 15.5495 36.7572 16.0523C36.9359 16.1127 37.0932 16.2363 37.2535 16.3624C37.3195 16.4143 37.386 16.4666 37.4548 16.5151L37.6 16.629C39.6168 18.3052 40.8781 20.8717 41.9368 23.1103C42.4719 22.967 42.1102 20.618 41.8312 20.0049C40.44 16.0973 36.6497 13.3677 32.5031 13.4469C30.764 13.3779 29.1012 13.5941 27.5672 14.0052C25.9879 14.3901 24.4494 15.0699 23.0135 15.9897ZM21.4454 37.9641C24.2422 48.2593 31.4687 51.8262 37.2838 50.2681C43.1346 48.7004 47.5738 42.0076 44.8483 31.6933C42.0515 21.3981 34.825 17.8312 29.0099 19.3893C23.2044 20.9831 18.7294 27.6854 21.4454 37.9641ZM27.9045 64.7813C31.3318 66.156 36.8219 65.5257 41.0768 64.4238C45.3222 63.2862 50.3919 61.087 52.6632 58.1472C49.2822 60.085 44.9591 61.9313 40.6947 62.9975C36.4327 64.2159 31.7918 64.7333 27.9045 64.7813ZM59.323 41.1907L59.3943 41.1716C59.5602 41.0932 59.7505 41.0214 59.9465 40.9475C60.6328 40.6888 61.3893 40.4035 61.4126 39.7136C61.1852 38.4369 57.6661 40.1442 56.8767 40.6232C54.8464 41.8934 52.1083 44.2322 52.4464 46.7785C53.2466 45.3411 54.6482 43.4369 56.3982 42.5476C57.8098 45.5325 56.5668 48.8847 54.7186 51.4054C53.1967 49.8641 48.7069 47.0926 49.6942 51.4905C49.6631 51.6421 49.7091 51.8028 49.7557 51.9653C49.7836 52.0629 49.8117 52.1612 49.8234 52.2584L49.833 52.2941C49.8903 52.508 49.9346 52.7446 49.9788 52.9811C50.0231 53.2177 50.0674 53.4542 50.1247 53.6681L50.1438 53.7395C50.1559 53.8005 50.168 53.8634 50.1803 53.9277C50.2782 54.4371 50.3926 55.0321 50.6381 55.4414C47.3954 57.6097 43.6858 59.1769 39.8137 60.138C36.0156 61.2321 32.0194 61.7297 28.0913 61.4828C28.0993 61.0056 27.9008 60.4331 27.7309 59.943C27.7094 59.8812 27.6885 59.8206 27.6684 59.7617L27.6493 59.6904C27.6011 59.5106 27.5324 59.3296 27.4623 59.1451C27.3655 58.8904 27.2662 58.6289 27.2149 58.3546L27.2053 58.3189C27.1668 58.2288 27.1421 58.1297 27.1175 58.0312C27.0765 57.8672 27.036 57.705 26.9333 57.5893C25.5893 53.2869 23.132 57.9581 22.5395 60.0277C19.6785 58.7688 16.9259 56.4873 16.656 53.1965C18.6162 53.0917 20.7821 54.04 22.1938 54.8847C21.2135 52.5104 17.6728 51.854 15.2794 51.7692C14.3563 51.749 10.4907 52.0205 10.8964 53.2493C11.3967 53.8336 12.2855 53.6757 13.0376 53.5421C13.2059 53.5122 13.3673 53.4835 13.5159 53.4646L13.5873 53.4455C13.638 53.4486 13.6833 53.4314 13.7257 53.4153C13.7808 53.3943 13.8311 53.3752 13.8823 53.4047C14.029 53.3984 14.1837 53.3685 14.3402 53.3384C14.5466 53.2986 14.7562 53.2582 14.9551 53.2701L14.9907 53.2606C15.1907 53.2535 15.3935 53.2332 15.5973 53.2127C15.8955 53.1827 16.1961 53.1525 16.4942 53.1634C16.2927 56.1219 18.5459 58.5373 20.9621 59.9918C26.7706 63.4036 33.7623 63.0971 40.2195 61.3668C46.7124 59.6271 52.8945 56.4419 56.2093 50.5473C57.5746 48.0796 58.3182 44.8612 56.6645 42.3998C56.9173 42.2413 57.1927 42.1172 57.4658 41.9941C57.6526 41.9099 57.8384 41.8261 58.0151 41.7322L58.0508 41.7227C58.2171 41.6129 58.4188 41.5431 58.6173 41.4744C58.768 41.4222 58.9169 41.3707 59.0471 41.3028C59.0982 41.2448 59.1621 41.2348 59.2188 41.2259C59.2598 41.2195 59.2971 41.2137 59.323 41.1907ZM37.2546 34.034C38.025 36.9092 36.8447 39.7235 34.6182 40.3201C32.3918 40.9167 29.9624 39.0695 29.192 36.1944C28.4216 33.3193 29.602 30.5049 31.8284 29.9083C34.0548 29.3118 36.4843 31.1589 37.2546 34.034Z" fill="#303030"/>
</g>
</svg>
